<svg width="25" height="25" viewBox="0 0 25 25" fill="none" xmlns="http://www.w3.org/2000/svg">
<g clip-path="url(#clip0_3_23)">
<path d="M15 7V8.28571M15 19V8.28571M15 8.28571C17.8125 7.42857 19.95 8.28571 19.5 8.28571M19.5 8.28571V19M19.5 8.28571C21.4307 7.69732 22.6545 7.84942 23.3534 8.04886C23.7524 8.16271 24 8.55993 24 8.97487V19" stroke="white" stroke-width="2"/>
<path d="M0 8.29412L4 6V19" stroke="white" stroke-width="2"/>
<g clip-path="url(#clip1_3_23)">
<path d="M7 10V6C7 5.44772 7.44772 5 8 5H13" stroke="white" stroke-width="2"/>
<path d="M12 5H14.2563" stroke="white" stroke-width="2"/>
<path d="M7 10V11.2189" stroke="white" stroke-width="2"/>
<mask id="path-6-inside-1_3_23" fill="white">
<path d="M5.46447 11.318C6.1817 10.6725 7.10012 10.2386 8.09779 10.0739C9.09547 9.90914 10.1252 10.0214 11.0503 10.3958C11.9755 10.7701 12.7522 11.3888 13.2774 12.1698C13.8027 12.9508 14.0516 13.857 13.9911 14.7683C13.9306 15.6796 13.5636 16.5527 12.9388 17.2719C12.314 17.991 11.461 18.5221 10.4929 18.7947C9.52488 19.0673 8.4876 19.0684 7.5188 18.798C6.55001 18.5276 5.69551 17.9984 5.06875 17.2806L6.64388 16.1665C7.01952 16.5967 7.53165 16.9138 8.11228 17.0759C8.6929 17.238 9.31457 17.2373 9.89476 17.074C10.4749 16.9106 10.9862 16.5923 11.3607 16.1613C11.7351 15.7303 11.9551 15.207 11.9913 14.6608C12.0276 14.1147 11.8784 13.5715 11.5636 13.1034C11.2488 12.6354 10.7833 12.2646 10.2288 12.0402C9.67438 11.8158 9.05722 11.7486 8.45928 11.8473C7.86134 11.946 7.31091 12.2061 6.88105 12.5929L5.46447 11.318Z"/>
</mask>
<path d="M5.46447 11.318C6.1817 10.6725 7.10012 10.2386 8.09779 10.0739C9.09547 9.90914 10.1252 10.0214 11.0503 10.3958C11.9755 10.7701 12.7522 11.3888 13.2774 12.1698C13.8027 12.9508 14.0516 13.857 13.9911 14.7683C13.9306 15.6796 13.5636 16.5527 12.9388 17.2719C12.314 17.991 11.461 18.5221 10.4929 18.7947C9.52488 19.0673 8.4876 19.0684 7.5188 18.798C6.55001 18.5276 5.69551 17.9984 5.06875 17.2806L6.64388 16.1665C7.01952 16.5967 7.53165 16.9138 8.11228 17.0759C8.6929 17.238 9.31457 17.2373 9.89476 17.074C10.4749 16.9106 10.9862 16.5923 11.3607 16.1613C11.7351 15.7303 11.9551 15.207 11.9913 14.6608C12.0276 14.1147 11.8784 13.5715 11.5636 13.1034C11.2488 12.6354 10.7833 12.2646 10.2288 12.0402C9.67438 11.8158 9.05722 11.7486 8.45928 11.8473C7.86134 11.946 7.31091 12.2061 6.88105 12.5929L5.46447 11.318Z" stroke="white" stroke-width="2" mask="url(#path-6-inside-1_3_23)"/>
</g>
</g>
<defs>
<clipPath id="clip0_3_23">
<rect width="25" height="25" fill="white"/>
</clipPath>
<clipPath id="clip1_3_23">
<rect width="9" height="18" fill="white" transform="translate(6 2)"/>
</clipPath>
</defs>
</svg>
