<svg width="25" height="25" viewBox="0 0 25 25" fill="none" xmlns="http://www.w3.org/2000/svg">
<path d="M4 8.29412L8 6V19" stroke="white" stroke-width="2"/>
<path d="M17 5V19" stroke="white" stroke-width="2"/>
<mask id="path-3-inside-1_3_115" fill="white">
<path d="M17.55 16.8432C17.1375 17.6377 16.4704 18.2709 15.6555 18.6413C14.8405 19.0118 13.9249 19.0983 13.055 18.8868C12.1852 18.6753 11.4114 18.1781 10.8575 17.4748C10.3037 16.7716 10.0017 15.9028 10 15.0076C9.9983 14.1124 10.2969 13.2425 10.8481 12.5371C11.3993 11.8318 12.1712 11.3316 13.0402 11.1169C13.9093 10.9021 14.8253 10.985 15.6416 11.3524C16.4579 11.7198 17.1274 12.3504 17.543 13.1433L16.1049 13.8969C15.858 13.4259 15.4602 13.0512 14.9753 12.833C14.4903 12.6147 13.9461 12.5654 13.4298 12.693C12.9135 12.8207 12.4549 13.1178 12.1275 13.5368C11.8 13.9559 11.6226 14.4727 11.6236 15.0045C11.6246 15.5364 11.804 16.0525 12.1331 16.4703C12.4621 16.8881 12.9218 17.1835 13.4386 17.3091C13.9554 17.4348 14.4994 17.3834 14.9835 17.1633C15.4676 16.9432 15.864 16.567 16.109 16.095L17.55 16.8432Z"/>
</mask>
<path d="M17.55 16.8432C17.1375 17.6377 16.4704 18.2709 15.6555 18.6413C14.8405 19.0118 13.9249 19.0983 13.055 18.8868C12.1852 18.6753 11.4114 18.1781 10.8575 17.4748C10.3037 16.7716 10.0017 15.9028 10 15.0076C9.9983 14.1124 10.2969 13.2425 10.8481 12.5371C11.3993 11.8318 12.1712 11.3316 13.0402 11.1169C13.9093 10.9021 14.8253 10.985 15.6416 11.3524C16.4579 11.7198 17.1274 12.3504 17.543 13.1433L16.1049 13.8969C15.858 13.4259 15.4602 13.0512 14.9753 12.833C14.4903 12.6147 13.9461 12.5654 13.4298 12.693C12.9135 12.8207 12.4549 13.1178 12.1275 13.5368C11.8 13.9559 11.6226 14.4727 11.6236 15.0045C11.6246 15.5364 11.804 16.0525 12.1331 16.4703C12.4621 16.8881 12.9218 17.1835 13.4386 17.3091C13.9554 17.4348 14.4994 17.3834 14.9835 17.1633C15.4676 16.9432 15.864 16.567 16.109 16.095L17.55 16.8432Z" stroke="white" stroke-width="4" mask="url(#path-3-inside-1_3_115)"/>
</svg>
