<svg width="25" height="25" viewBox="0 0 25 25" fill="none" xmlns="http://www.w3.org/2000/svg">
<g clip-path="url(#clip0_3_12)">
<path d="M3 11V7C3 6.44772 3.44772 6 4 6H9" stroke="white" stroke-width="2"/>
<path d="M8 6H10.2563" stroke="white" stroke-width="2"/>
<path d="M3 11V12.2189" stroke="white" stroke-width="2"/>
<mask id="path-4-inside-1_3_12" fill="white">
<path d="M1.46447 12.318C2.1817 11.6725 3.10012 11.2386 4.09779 11.0739C5.09547 10.9091 6.12522 11.0214 7.05034 11.3958C7.97546 11.7701 8.7522 12.3888 9.27744 13.1698C9.80268 13.9508 10.0516 14.857 9.9911 15.7683C9.93063 16.6796 9.56363 17.5527 8.93883 18.2719C8.31403 18.991 7.46099 19.5221 6.49293 19.7947C5.52488 20.0673 4.4876 20.0684 3.5188 19.798C2.55001 19.5276 1.69551 18.9984 1.06875 18.2806L2.64388 17.1665C3.01952 17.5967 3.53165 17.9138 4.11228 18.0759C4.6929 18.238 5.31457 18.2373 5.89476 18.074C6.47494 17.9106 6.9862 17.5923 7.36066 17.1613C7.73512 16.7303 7.95507 16.207 7.99132 15.6608C8.02757 15.1147 7.87839 14.5715 7.5636 14.1034C7.2488 13.6354 6.78328 13.2646 6.22883 13.0402C5.67438 12.8158 5.05722 12.7486 4.45928 12.8473C3.86134 12.946 3.31091 13.2061 2.88105 13.5929L1.46447 12.318Z"/>
</mask>
<path d="M1.46447 12.318C2.1817 11.6725 3.10012 11.2386 4.09779 11.0739C5.09547 10.9091 6.12522 11.0214 7.05034 11.3958C7.97546 11.7701 8.7522 12.3888 9.27744 13.1698C9.80268 13.9508 10.0516 14.857 9.9911 15.7683C9.93063 16.6796 9.56363 17.5527 8.93883 18.2719C8.31403 18.991 7.46099 19.5221 6.49293 19.7947C5.52488 20.0673 4.4876 20.0684 3.5188 19.798C2.55001 19.5276 1.69551 18.9984 1.06875 18.2806L2.64388 17.1665C3.01952 17.5967 3.53165 17.9138 4.11228 18.0759C4.6929 18.238 5.31457 18.2373 5.89476 18.074C6.47494 17.9106 6.9862 17.5923 7.36066 17.1613C7.73512 16.7303 7.95507 16.207 7.99132 15.6608C8.02757 15.1147 7.87839 14.5715 7.5636 14.1034C7.2488 13.6354 6.78328 13.2646 6.22883 13.0402C5.67438 12.8158 5.05722 12.7486 4.45928 12.8473C3.86134 12.946 3.31091 13.2061 2.88105 13.5929L1.46447 12.318Z" stroke="white" stroke-width="2" mask="url(#path-4-inside-1_3_12)"/>
</g>
<path d="M13 7V8.28571M13 19V8.28571M13 8.28571C15.8125 7.42857 17.95 8.28571 17.5 8.28571M17.5 8.28571V19M17.5 8.28571C19.4307 7.69732 20.6545 7.84942 21.3534 8.04886C21.7524 8.16271 22 8.55993 22 8.97487V19" stroke="white" stroke-width="2"/>
<defs>
<clipPath id="clip0_3_12">
<rect width="9" height="18" fill="white" transform="translate(2 3)"/>
</clipPath>
</defs>
</svg>
