<svg width="25" height="25" viewBox="0 0 25 25" fill="none" xmlns="http://www.w3.org/2000/svg">
<path d="M23 18.5H5.5H5" stroke="white" stroke-width="2"/>
<rect x="2.37869" y="18.5" width="3" height="3" transform="rotate(-45 2.37869 18.5)" fill="white"/>
<path d="M12.375 13.3333C13 14.0417 14.25 14.75 15.5 14.75M15.5 14.75C17.0625 14.75 18.625 14.3958 18.625 12.625C18.625 10.8542 17.0934 10.5 15.5 10.5M15.5 14.75V10.5M15.5 14.75V16.875M15.5 10.5C13.9375 10.5 12.375 10.1458 12.375 8.375C12.375 6.60417 13.9375 6.25 15.5 6.25M15.5 10.5V6.25M15.5 6.25C16.75 6.25 18 6.95833 18.625 7.66667M15.5 6.25V4.125" stroke="white" stroke-width="2"/>
</svg>
