<svg xmlns="http://www.w3.org/2000/svg" width="28" height="28"><g fill="current"><path d="M7.5 6h13V5h-13zM7.5 23h13v-1h-13zM5 7.5v13h1v-13zM22 7.5v13h1v-13z"/><path d="M5.5 7a1.5 1.5 0 1 0-.001-3.001A1.5 1.5 0 0 0 5.5 7zm0 1a2.5 2.5 0 1 1 0-5 2.5 2.5 0 0 1 0 5zm17-1a1.5 1.5 0 1 0-.001-3.001A1.5 1.5 0 0 0 22.5 7zm0 1a2.5 2.5 0 1 1 0-5 2.5 2.5 0 0 1 0 5zm0 16a1.5 1.5 0 1 0-.001-3.001A1.5 1.5 0 0 0 22.5 24zm0 1a2.5 2.5 0 1 1 0-5 2.5 2.5 0 0 1 0 5zm-17-1a1.5 1.5 0 1 0-.001-3.001A1.5 1.5 0 0 0 5.5 24zm0 1a2.5 2.5 0 1 1 0-5 2.5 2.5 0 0 1 0 5z"/></g></svg>