<svg width="25" height="25" viewBox="0 0 25 25" fill="none" xmlns="http://www.w3.org/2000/svg">
<rect x="10" y="4" width="6" height="1" fill="white"/>
<mask id="path-2-inside-1_3_269" fill="white">
<path d="M4 6C4 5.44772 4.44772 5 5 5H20C20.5523 5 21 5.44772 21 6V7H4V6Z"/>
</mask>
<path d="M4 6C4 5.44772 4.44772 5 5 5H20C20.5523 5 21 5.44772 21 6V7H4V6Z" fill="white"/>
<path d="M21 7V9H23V7H21ZM4 7H2V9H4V7ZM5 7H20V3H5V7ZM19 6V7H23V6H19ZM21 5H4V9H21V5ZM6 7V6H2V7H6ZM20 7C19.4477 7 19 6.55228 19 6H23C23 4.34315 21.6569 3 20 3V7ZM5 3C3.34315 3 2 4.34315 2 6H6C6 6.55228 5.55228 7 5 7V3Z" fill="white" mask="url(#path-2-inside-1_3_269)"/>
<mask id="path-4-inside-2_3_269" fill="white">
<path d="M6 8H19V22C19 22.5523 18.5523 23 18 23H7C6.44772 23 6 22.5523 6 22V8Z"/>
</mask>
<path d="M6 8H19V22C19 22.5523 18.5523 23 18 23H7C6.44772 23 6 22.5523 6 22V8Z" stroke="white" stroke-width="4" mask="url(#path-4-inside-2_3_269)"/>
</svg>
