<svg width="25" height="25" viewBox="0 0 25 25" fill="none" xmlns="http://www.w3.org/2000/svg">
<g clip-path="url(#clip0_3_78)">
<path d="M13 12C13 13.8114 12.6308 15.4019 12.0804 16.5025C11.5002 17.663 10.8837 18 10.5 18C10.1163 18 9.49978 17.663 8.91955 16.5025C8.36924 15.4019 8 13.8114 8 12C8 10.1886 8.36924 8.5981 8.91955 7.49747C9.49978 6.33702 10.1163 6 10.5 6C10.8837 6 11.5002 6.33702 12.0804 7.49747C12.6308 8.5981 13 10.1886 13 12Z" stroke="white" stroke-width="2"/>
<path d="M15 7V8.28571M15 19V8.28571M15 8.28571C17.8125 7.42857 19.95 8.28571 19.5 8.28571M19.5 8.28571V19M19.5 8.28571C21.4307 7.69732 22.6545 7.84942 23.3534 8.04886C23.7524 8.16271 24 8.55993 24 8.97487V19" stroke="white" stroke-width="2"/>
<g clip-path="url(#clip1_3_78)">
<mask id="path-3-inside-1_3_78" fill="white">
<path d="M0.17633 5.88264C0.622423 5.4866 1.16234 5.21115 1.74481 5.08244C2.32729 4.95373 2.933 4.97603 3.50443 5.14722C4.07587 5.31842 4.59407 5.63282 5.00983 6.06059C5.4256 6.48835 5.72513 7.01529 5.88 7.59136C6.03486 8.16744 6.03992 8.77354 5.89469 9.35212C5.74946 9.93069 5.45876 10.4626 5.05019 10.8972C4.64162 11.3318 4.12873 11.6548 3.56023 11.8356C2.99173 12.0163 2.38648 12.0487 1.80194 11.9297L2.08002 10.5634C2.4317 10.635 2.79585 10.6155 3.13788 10.5068C3.47991 10.3981 3.78848 10.2037 4.03429 9.94225C4.2801 9.68075 4.455 9.36076 4.54238 9.01267C4.62976 8.66457 4.62671 8.29992 4.53354 7.95333C4.44037 7.60674 4.26016 7.28971 4.01002 7.03235C3.75987 6.77499 3.44811 6.58583 3.10431 6.48284C2.76051 6.37984 2.39609 6.36643 2.04565 6.44386C1.69521 6.5213 1.37038 6.68702 1.10199 6.92529L0.17633 5.88264Z"/>
</mask>
<path d="M0.17633 5.88264C0.622423 5.4866 1.16234 5.21115 1.74481 5.08244C2.32729 4.95373 2.933 4.97603 3.50443 5.14722C4.07587 5.31842 4.59407 5.63282 5.00983 6.06059C5.4256 6.48835 5.72513 7.01529 5.88 7.59136C6.03486 8.16744 6.03992 8.77354 5.89469 9.35212C5.74946 9.93069 5.45876 10.4626 5.05019 10.8972C4.64162 11.3318 4.12873 11.6548 3.56023 11.8356C2.99173 12.0163 2.38648 12.0487 1.80194 11.9297L2.08002 10.5634C2.4317 10.635 2.79585 10.6155 3.13788 10.5068C3.47991 10.3981 3.78848 10.2037 4.03429 9.94225C4.2801 9.68075 4.455 9.36076 4.54238 9.01267C4.62976 8.66457 4.62671 8.29992 4.53354 7.95333C4.44037 7.60674 4.26016 7.28971 4.01002 7.03235C3.75987 6.77499 3.44811 6.58583 3.10431 6.48284C2.76051 6.37984 2.39609 6.36643 2.04565 6.44386C1.69521 6.5213 1.37038 6.68702 1.10199 6.92529L0.17633 5.88264Z" stroke="white" stroke-width="2" mask="url(#path-3-inside-1_3_78)"/>
<path d="M0.171574 17.8284C0.682191 18.339 1.32151 18.7019 2.0217 18.8785C2.7219 19.0551 3.45684 19.0389 4.14855 18.8316C4.84027 18.6242 5.46295 18.2335 5.95053 17.7008C6.43811 17.1681 6.7724 16.5134 6.91793 15.8061C7.06346 15.0988 7.0148 14.3653 6.77712 13.6834C6.53944 13.0015 6.1216 12.3967 5.56794 11.9331C5.01428 11.4695 4.34544 11.1645 3.6324 11.0503C2.91936 10.9361 2.67073 10.7325 2 11L1.5 12.5C1.9178 12.3333 2.55585 12.4289 3 12.5C3.44415 12.5711 4.25469 12.8009 4.59957 13.0896C4.94445 13.3784 5.20472 13.7552 5.35277 14.1799C5.50082 14.6047 5.53113 15.0616 5.44048 15.5021C5.34982 15.9427 5.14159 16.3505 4.83788 16.6823C4.53417 17.0141 4.1463 17.2575 3.71543 17.3867C3.28457 17.5158 2.82677 17.5259 2.39062 17.4159C1.95447 17.3059 1.55624 17.0799 1.23817 16.7618L0.171574 17.8284Z" fill="white"/>
</g>
</g>
<defs>
<clipPath id="clip0_3_78">
<rect width="25" height="25" fill="white"/>
</clipPath>
<clipPath id="clip1_3_78">
<rect width="8" height="14" fill="white" transform="translate(-1 5)"/>
</clipPath>
</defs>
</svg>
