<svg width="25" height="25" viewBox="0 0 25 25" fill="none" xmlns="http://www.w3.org/2000/svg">
<rect x="7" y="4" width="6" height="1" fill="white"/>
<path d="M1 6C1 5.44772 1.44772 5 2 5H17C17.5523 5 18 5.44772 18 6V7H1V6Z" fill="white"/>
<mask id="path-3-inside-1_3_276" fill="white">
<path d="M3 8H16V22C16 22.5523 15.5523 23 15 23H4C3.44772 23 3 22.5523 3 22V8Z"/>
</mask>
<path d="M3 8H16V22C16 22.5523 15.5523 23 15 23H4C3.44772 23 3 22.5523 3 22V8Z" stroke="white" stroke-width="4" mask="url(#path-3-inside-1_3_276)"/>
<mask id="path-4-inside-2_3_276" fill="white">
<path d="M24 5.5C24 7.98528 21.9853 10 19.5 10C17.0147 10 15 7.98528 15 5.5C15 3.01472 17.0147 1 19.5 1C21.9853 1 24 3.01472 24 5.5ZM16.1452 5.5C16.1452 7.3528 17.6472 8.8548 19.5 8.8548C21.3528 8.8548 22.8548 7.3528 22.8548 5.5C22.8548 3.6472 21.3528 2.1452 19.5 2.1452C17.6472 2.1452 16.1452 3.6472 16.1452 5.5Z"/>
</mask>
<path d="M24 5.5C24 7.98528 21.9853 10 19.5 10C17.0147 10 15 7.98528 15 5.5C15 3.01472 17.0147 1 19.5 1C21.9853 1 24 3.01472 24 5.5ZM16.1452 5.5C16.1452 7.3528 17.6472 8.8548 19.5 8.8548C21.3528 8.8548 22.8548 7.3528 22.8548 5.5C22.8548 3.6472 21.3528 2.1452 19.5 2.1452C17.6472 2.1452 16.1452 3.6472 16.1452 5.5Z" stroke="white" stroke-width="2" mask="url(#path-4-inside-2_3_276)"/>
<path d="M19.5 3V6L21.5 7.5" stroke="white"/>
</svg>
